<svg width="34" height="35" viewBox="0 0 34 35" fill="none" xmlns="http://www.w3.org/2000/svg">
<path d="M6.75004 26.0874C8.16671 25.004 9.75004 24.1499 11.5 23.5249C13.25 22.8999 15.0834 22.5874 17 22.5874C18.9167 22.5874 20.75 22.8999 22.5 23.5249C24.25 24.1499 25.8334 25.004 27.25 26.0874C28.2223 24.9485 28.9792 23.6568 29.5209 22.2124C30.0625 20.7679 30.3334 19.2263 30.3334 17.5874C30.3334 13.8929 29.0348 10.7471 26.4375 8.14988C23.8403 5.55266 20.6945 4.25405 17 4.25405C13.3056 4.25405 10.1598 5.55266 7.56254 8.14988C4.96532 10.7471 3.66671 13.8929 3.66671 17.5874C3.66671 19.2263 3.93754 20.7679 4.47921 22.2124C5.02087 23.6568 5.77782 24.9485 6.75004 26.0874ZM17 19.254C15.3612 19.254 13.9792 18.6915 12.8542 17.5665C11.7292 16.4415 11.1667 15.0596 11.1667 13.4207C11.1667 11.7818 11.7292 10.3999 12.8542 9.27488C13.9792 8.14988 15.3612 7.58738 17 7.58738C18.6389 7.58738 20.0209 8.14988 21.1459 9.27488C22.2709 10.3999 22.8334 11.7818 22.8334 13.4207C22.8334 15.0596 22.2709 16.4415 21.1459 17.5665C20.0209 18.6915 18.6389 19.254 17 19.254ZM17 34.254C14.6945 34.254 12.5278 33.8165 10.5 32.9415C8.47226 32.0665 6.70837 30.879 5.20837 29.379C3.70837 27.879 2.52087 26.1152 1.64587 24.0874C0.770874 22.0596 0.333374 19.8929 0.333374 17.5874C0.333374 15.2818 0.770874 13.1152 1.64587 11.0874C2.52087 9.0596 3.70837 7.29572 5.20837 5.79572C6.70837 4.29572 8.47226 3.10822 10.5 2.23322C12.5278 1.35822 14.6945 0.920715 17 0.920715C19.3056 0.920715 21.4723 1.35822 23.5 2.23322C25.5278 3.10822 27.2917 4.29572 28.7917 5.79572C30.2917 7.29572 31.4792 9.0596 32.3542 11.0874C33.2292 13.1152 33.6667 15.2818 33.6667 17.5874C33.6667 19.8929 33.2292 22.0596 32.3542 24.0874C31.4792 26.1152 30.2917 27.879 28.7917 29.379C27.2917 30.879 25.5278 32.0665 23.5 32.9415C21.4723 33.8165 19.3056 34.254 17 34.254ZM17 30.9207C18.4723 30.9207 19.8612 30.7054 21.1667 30.2749C22.4723 29.8443 23.6667 29.2263 24.75 28.4207C23.6667 27.6152 22.4723 26.9971 21.1667 26.5665C19.8612 26.136 18.4723 25.9207 17 25.9207C15.5278 25.9207 14.1389 26.136 12.8334 26.5665C11.5278 26.9971 10.3334 27.6152 9.25004 28.4207C10.3334 29.2263 11.5278 29.8443 12.8334 30.2749C14.1389 30.7054 15.5278 30.9207 17 30.9207ZM17 15.9207C17.7223 15.9207 18.3195 15.6846 18.7917 15.2124C19.2639 14.7402 19.5 14.1429 19.5 13.4207C19.5 12.6985 19.2639 12.1013 18.7917 11.629C18.3195 11.1568 17.7223 10.9207 17 10.9207C16.2778 10.9207 15.6806 11.1568 15.2084 11.629C14.7362 12.1013 14.5 12.6985 14.5 13.4207C14.5 14.1429 14.7362 14.7402 15.2084 15.2124C15.6806 15.6846 16.2778 15.9207 17 15.9207Z" fill="#265480"/>
</svg>
