<svg width="24" height="25" viewBox="0 0 24 25" fill="none" xmlns="http://www.w3.org/2000/svg">
<mask id="mask0_0_1" style="mask-type:alpha" maskUnits="userSpaceOnUse" x="-8" y="-8" width="40" height="41">
<rect x="-8" y="-7.55884" width="40" height="40" fill="#D9D9D9"/>
</mask>
<g mask="url(#mask0_0_1)">
<path d="M4.62 18.5612C5.64 17.7812 6.78 17.1662 8.04 16.7162C9.3 16.2662 10.62 16.0412 12 16.0412C13.38 16.0412 14.7 16.2662 15.96 16.7162C17.22 17.1662 18.36 17.7812 19.38 18.5612C20.08 17.7412 20.625 16.8112 21.015 15.7712C21.405 14.7312 21.6 13.6212 21.6 12.4412C21.6 9.78116 20.665 7.51616 18.795 5.64616C16.925 3.77616 14.66 2.84116 12 2.84116C9.34 2.84116 7.075 3.77616 5.205 5.64616C3.335 7.51616 2.4 9.78116 2.4 12.4412C2.4 13.6212 2.595 14.7312 2.985 15.7712C3.375 16.8112 3.92 17.7412 4.62 18.5612ZM12 13.6412C10.82 13.6412 9.825 13.2362 9.015 12.4262C8.205 11.6162 7.8 10.6212 7.8 9.44116C7.8 8.26116 8.205 7.26616 9.015 6.45616C9.825 5.64616 10.82 5.24116 12 5.24116C13.18 5.24116 14.175 5.64616 14.985 6.45616C15.795 7.26616 16.2 8.26116 16.2 9.44116C16.2 10.6212 15.795 11.6162 14.985 12.4262C14.175 13.2362 13.18 13.6412 12 13.6412ZM12 24.4412C10.34 24.4412 8.78 24.1262 7.32 23.4962C5.86 22.8662 4.59 22.0112 3.51 20.9312C2.43 19.8512 1.575 18.5812 0.945 17.1212C0.315 15.6612 0 14.1012 0 12.4412C0 10.7812 0.315 9.22116 0.945 7.76116C1.575 6.30116 2.43 5.03116 3.51 3.95116C4.59 2.87116 5.86 2.01616 7.32 1.38616C8.78 0.756162 10.34 0.441162 12 0.441162C13.66 0.441162 15.22 0.756162 16.68 1.38616C18.14 2.01616 19.41 2.87116 20.49 3.95116C21.57 5.03116 22.425 6.30116 23.055 7.76116C23.685 9.22116 24 10.7812 24 12.4412C24 14.1012 23.685 15.6612 23.055 17.1212C22.425 18.5812 21.57 19.8512 20.49 20.9312C19.41 22.0112 18.14 22.8662 16.68 23.4962C15.22 24.1262 13.66 24.4412 12 24.4412ZM12 22.0412C13.06 22.0412 14.06 21.8862 15 21.5762C15.94 21.2662 16.8 20.8212 17.58 20.2412C16.8 19.6612 15.94 19.2162 15 18.9062C14.06 18.5962 13.06 18.4412 12 18.4412C10.94 18.4412 9.94 18.5962 9 18.9062C8.06 19.2162 7.2 19.6612 6.42 20.2412C7.2 20.8212 8.06 21.2662 9 21.5762C9.94 21.8862 10.94 22.0412 12 22.0412ZM12 11.2412C12.52 11.2412 12.95 11.0712 13.29 10.7312C13.63 10.3912 13.8 9.96116 13.8 9.44116C13.8 8.92116 13.63 8.49116 13.29 8.15116C12.95 7.81116 12.52 7.64116 12 7.64116C11.48 7.64116 11.05 7.81116 10.71 8.15116C10.37 8.49116 10.2 8.92116 10.2 9.44116C10.2 9.96116 10.37 10.3912 10.71 10.7312C11.05 11.0712 11.48 11.2412 12 11.2412Z" fill="#7EC0FD"/>
</g>
</svg>
