<?xml version="1.0" encoding="utf-8"?>
<!-- Generator: Adobe Illustrator 27.5.0, SVG Export Plug-In . SVG Version: 6.00 Build 0)  -->
<svg version="1.1" xmlns="http://www.w3.org/2000/svg" xmlns:xlink="http://www.w3.org/1999/xlink" x="0px" y="0px"
	 viewBox="0 0 500 500" style="enable-background:new 0 0 500 500;" xml:space="preserve">
<g id="Background_Complete">
	<g>
		<rect y="382.398" style="fill:#EBEBEB;" width="500" height="0.25"/>
		<rect x="363" y="398.494" style="fill:#EBEBEB;" width="86.901" height="0.25"/>
		<rect x="357.665" y="389.208" style="fill:#EBEBEB;" width="8.693" height="0.25"/>
		<rect x="322.527" y="401.208" style="fill:#EBEBEB;" width="19.192" height="0.25"/>
		<rect x="52.459" y="390.888" style="fill:#EBEBEB;" width="21.597" height="0.25"/>
		<rect x="82.959" y="390.888" style="fill:#EBEBEB;" width="27.93" height="0.25"/>
		<rect x="207.667" y="394.986" style="fill:#EBEBEB;" width="46.838" height="0.25"/>
		<path style="fill:#EBEBEB;" d="M237.014,337.8H43.915c-3.147,0-5.708-2.561-5.708-5.708V60.66c0-3.147,2.561-5.708,5.708-5.708
			h193.099c3.146,0,5.707,2.561,5.707,5.708v271.432C242.721,335.239,240.16,337.8,237.014,337.8z M43.915,55.203
			c-3.01,0-5.458,2.448-5.458,5.458v271.432c0,3.01,2.448,5.458,5.458,5.458h193.099c3.009,0,5.457-2.448,5.457-5.458V60.66
			c0-3.009-2.448-5.458-5.457-5.458H43.915z"/>
		<path style="fill:#EBEBEB;" d="M453.31,337.8H260.212c-3.147,0-5.707-2.561-5.707-5.708V60.66c0-3.147,2.561-5.708,5.707-5.708
			H453.31c3.148,0,5.708,2.561,5.708,5.708v271.432C459.019,335.239,456.458,337.8,453.31,337.8z M260.212,55.203
			c-3.009,0-5.457,2.448-5.457,5.458v271.432c0,3.01,2.448,5.458,5.457,5.458H453.31c3.01,0,5.458-2.448,5.458-5.458V60.66
			c0-3.009-2.448-5.458-5.458-5.458H260.212z"/>
	</g>
	<g>
		<g>
			<g>
				<path style="fill:#F0F0F0;" d="M188.85,271.08h86.336v107.913H188.85c-8.35,0-15.182-6.832-15.182-15.182v-77.548
					C173.667,277.912,180.499,271.08,188.85,271.08z"/>
				<path style="fill:#F5F5F5;" d="M274.471,271.08h1.43c8.35,0,15.182,6.832,15.182,15.182v77.548
					c0,8.35-6.832,15.182-15.182,15.182h-1.43c-8.35,0-15.183-6.832-15.183-15.182v-77.548
					C259.289,277.912,266.121,271.08,274.471,271.08z"/>
			</g>
			<rect x="161.677" y="310.884" style="fill:#F0F0F0;" width="101.95" height="68.109"/>
			<path style="fill:#E0E0E0;" d="M272.881,382.398H80.528c-1.719,0-3.113-1.394-3.113-3.113v-0.292h198.58v0.292
				C275.995,381.005,274.601,382.398,272.881,382.398z"/>
			<path style="fill:#E0E0E0;" d="M178.906,231.736h-94.11c-11.693,0-20.336,9.48-19.302,21.173l6.482,73.373h136.456l-6.482-73.373
				C200.917,241.216,190.6,231.736,178.906,231.736z"/>
			<path style="fill:#F5F5F5;" d="M200.136,231.736h-96.151c-11.13,0-19.356,9.023-18.372,20.153l6.573,74.393h136.456
				l-6.573-74.393C221.086,240.759,211.266,231.736,200.136,231.736z"/>
			<path style="fill:#E0E0E0;" d="M263.897,304.665H166.77c-0.142,0-0.257,0.115-0.257,0.257v27.224
				c0,0.142,0.115,0.257,0.257,0.257h97.127c2.522,0,4.566-2.044,4.566-4.566v-18.606
				C268.463,306.709,266.419,304.665,263.897,304.665z"/>
			<path style="fill:#F0F0F0;" d="M74.849,271.08h86.336v107.913H74.849c-8.35,0-15.182-6.832-15.182-15.182v-77.548
				C59.667,277.912,66.499,271.08,74.849,271.08z"/>
			<path style="fill:#F5F5F5;" d="M160.471,271.08h1.43c8.35,0,15.182,6.832,15.182,15.182v77.548
				c0,8.35-6.832,15.182-15.182,15.182h-1.43c-8.35,0-15.182-6.832-15.182-15.182v-77.548
				C145.288,277.912,152.12,271.08,160.471,271.08z"/>
		</g>
		<g>
			<g>
				<rect x="412.811" y="255.358" style="fill:#E6E6E6;" width="26.99" height="127.04"/>
				<polygon style="fill:#F0F0F0;" points="434.674,382.398 439.801,382.398 439.801,360.291 429.299,360.291 				"/>
				<rect x="311.938" y="255.358" style="fill:#E6E6E6;" width="26.99" height="127.04"/>
				<rect x="334.454" y="255.358" style="fill:#F0F0F0;" width="105.347" height="119.74"/>
				
					<rect x="398.575" y="252.916" transform="matrix(6.123234e-17 -1 1 6.123234e-17 135.9314 688.7402)" style="fill:#E6E6E6;" width="27.521" height="46.976"/>
				
					<rect x="348.158" y="252.916" transform="matrix(6.123234e-17 -1 1 6.123234e-17 85.5144 638.3233)" style="fill:#E6E6E6;" width="27.521" height="46.976"/>
				<path style="fill:#F0F0F0;" d="M366.566,265.972h-9.294c-4.037,0-7.896-1.354-10.673-3.745l0,0h30.639l0,0
					C374.462,264.617,370.603,265.972,366.566,265.972z"/>
				<path style="fill:#F0F0F0;" d="M417.458,265.972h-9.294c-4.037,0-7.896-1.354-10.673-3.745l0,0h30.639l0,0
					C425.354,264.617,421.494,265.972,417.458,265.972z"/>
				
					<rect x="398.575" y="288.323" transform="matrix(6.123234e-17 -1 1 6.123234e-17 100.5253 724.1464)" style="fill:#E6E6E6;" width="27.521" height="46.976"/>
				
					<rect x="348.158" y="288.323" transform="matrix(6.123234e-17 -1 1 6.123234e-17 50.1083 673.7294)" style="fill:#E6E6E6;" width="27.521" height="46.976"/>
				<path style="fill:#F0F0F0;" d="M366.566,301.378h-9.294c-4.037,0-7.896-1.354-10.673-3.745l0,0h30.639l0,0
					C374.462,300.023,370.603,301.378,366.566,301.378z"/>
				<path style="fill:#F0F0F0;" d="M417.458,301.378h-9.294c-4.037,0-7.896-1.354-10.673-3.745l0,0h30.639l0,0
					C425.354,300.023,421.494,301.378,417.458,301.378z"/>
				
					<rect x="398.575" y="323.729" transform="matrix(6.123234e-17 -1 1 6.123234e-17 65.1192 759.5524)" style="fill:#E6E6E6;" width="27.521" height="46.976"/>
				
					<rect x="348.158" y="323.728" transform="matrix(6.123234e-17 -1 1 6.123234e-17 14.7023 709.1354)" style="fill:#E6E6E6;" width="27.521" height="46.976"/>
				<path style="fill:#F0F0F0;" d="M366.566,336.784h-9.294c-4.037,0-7.896-1.354-10.673-3.745l0,0h30.639l0,0
					C374.462,335.43,370.603,336.784,366.566,336.784z"/>
				<path style="fill:#F0F0F0;" d="M417.458,336.784h-9.294c-4.037,0-7.896-1.354-10.673-3.745l0,0h30.639l0,0
					C425.354,335.43,421.494,336.784,417.458,336.784z"/>
				<polygon style="fill:#F0F0F0;" points="339.58,382.398 334.454,382.398 334.454,360.291 344.955,360.291 				"/>
			</g>
			<path style="fill:#E6E6E6;" d="M343.923,238.775c0,0,0.423,16.583,16.658,16.583c16.234,0,16.658-16.583,16.658-16.583H343.923z"
				/>
			<path style="fill:#FAFAFA;" d="M394.584,240.828c0,0,0.371,14.529,14.595,14.529c14.224,0,14.595-14.529,14.595-14.529H394.584z"
				/>
			<path style="fill:#F5F5F5;" d="M382.189,243.633c0,0,0.299,11.725,11.777,11.725s11.778-11.725,11.778-11.725H382.189z"/>
			<path style="fill:#E6E6E6;" d="M343.923,226.306c0,0,0.423,16.583,16.658,16.583c16.234,0,16.658-16.583,16.658-16.583H343.923z"
				/>
		</g>
		<g>
			<g>
				<rect x="86.523" y="69.953" style="fill:#E6E6E6;" width="323.235" height="139.267"/>
				<rect x="90.603" y="69.953" style="fill:#F0F0F0;" width="325.796" height="139.267"/>
				
					<rect x="191.428" y="-16.581" transform="matrix(-1.836970e-16 1 -1 -1.836970e-16 393.0876 -113.9144)" style="fill:#FAFAFA;" width="124.147" height="312.335"/>
				<polygon style="fill:#FFFFFF;" points="135.668,201.66 175.169,77.513 226.951,77.513 187.449,201.66 				"/>
				<polygon style="fill:#FFFFFF;" points="195.829,201.66 235.331,77.513 258.716,77.513 219.215,201.66 				"/>
				<polygon style="fill:#FFFFFF;" points="288.622,201.66 328.123,77.513 368.063,77.513 328.562,201.66 				"/>
				
					<rect x="347.168" y="139.159" transform="matrix(-1.836970e-16 1 -1 -1.836970e-16 548.8278 -269.6547)" style="fill:#E6E6E6;" width="124.147" height="0.855"/>
				<rect x="243.792" y="69.953" style="fill:#F0F0F0;" width="19.417" height="139.267"/>
				
					<rect x="181.292" y="139.159" transform="matrix(-1.836970e-16 1 -1 -1.836970e-16 382.9518 -103.7785)" style="fill:#E6E6E6;" width="124.147" height="0.855"/>
				<rect x="253.163" y="69.953" style="fill:#E6E6E6;" width="0.676" height="139.267"/>
			</g>
		</g>
	</g>
</g>
<g id="Background_Simple" style="display:none;">
	<g style="display:inline;">
		<path style="fill:#407BFF;" d="M171.518,140.175c27.782,2.176,55.561-7.861,79.453-23.121
			c107.946-81.445,254.167,24.138,125.95,125.932c-63.221,53.269-128.076,51.875-192.543,42.102
			C53.482,271.306,65.472,173.016,85.575,147.874C105.964,123.36,144.697,138.773,171.518,140.175z"/>
		<path style="opacity:0.9;fill:#FFFFFF;" d="M171.518,140.175c27.782,2.176,55.561-7.861,79.453-23.121
			c107.946-81.445,254.167,24.138,125.95,125.932c-63.221,53.269-128.076,51.875-192.543,42.102
			C53.482,271.306,65.472,173.016,85.575,147.874C105.964,123.36,144.697,138.773,171.518,140.175z"/>
	</g>
</g>
<g id="Shadow_1_">
	<ellipse id="_x3C_Path_x3E__116_" style="fill:#F5F5F5;" cx="250" cy="416.238" rx="193.889" ry="11.323"/>
</g>
<g id="Bitcoin">
	<g>
		<g>
			<g>
				<path style="fill:#407BFF;" d="M222.633,191.56h-22.082v224.678h22.082c62.043,0,112.339-50.296,112.339-112.339
					C334.973,241.856,284.676,191.56,222.633,191.56z"/>
				<path style="opacity:0.1;" d="M222.633,191.56h-22.082v224.678h22.082c62.043,0,112.339-50.295,112.339-112.339
					C334.972,241.856,284.677,191.56,222.633,191.56z"/>
			</g>
			<path style="fill:#407BFF;" d="M149.517,201.035l-0.445-0.895c7.806-3.888,16.054-6.887,24.517-8.912l0.232,0.973
				C165.432,194.208,157.255,197.18,149.517,201.035z"/>
			<path style="fill:#407BFF;" d="M136.545,208.594l-0.559-0.829c2.149-1.448,4.372-2.839,6.605-4.135l0.502,0.865
				C140.88,205.779,138.676,207.158,136.545,208.594z"/>
			
				<ellipse transform="matrix(0.7071 -0.7071 0.7071 0.7071 -156.149 230.8211)" style="fill:#407BFF;" cx="200.551" cy="303.899" rx="112.339" ry="112.339"/>
			<path style="opacity:0.1;" d="M269.098,243.284c-16.148-14.326-37.395-23.031-60.687-23.031
				c-50.536,0-91.507,40.971-91.507,91.507c0,23.264,8.685,44.502,22.993,60.65c-18.921-16.764-30.848-41.243-30.848-68.513
				c0-50.536,40.962-91.507,91.498-91.507C227.836,212.39,252.333,224.335,269.098,243.284z"/>
		</g>
		<path style="opacity:0.1;" d="M244.941,312.092c-2.858-3.548-7.317-6.051-13.378-7.509c3.99-1.381,7.02-3.26,9.091-5.639
			c3.107-3.568,4.661-7.845,4.661-12.831c0-5.946-2.177-10.932-6.53-14.96c-4.354-4.028-10.597-6.042-18.729-6.042h-4.997v-14.167
			h-9.455v14.167h-11.733v-14.167h-9.455v14.167h-13.153h-7.397V282.2h7.397v50.174h-7.397v17.089h7.397h13.153v14.167h9.455
			v-14.167h11.733v14.167h9.455v-14.167h1.199c1.917,0,5.811-0.384,11.68-1.151c4.411-0.575,7.71-1.496,9.897-2.761
			c3.529-2.033,6.31-4.795,8.343-8.286c2.033-3.491,3.049-7.422,3.049-11.796C249.228,320.1,247.799,315.64,244.941,312.092z
			 M197.558,282.2h11.508c3.951,0,6.722,0.691,8.314,2.072c1.592,1.381,2.388,3.299,2.388,5.754c0,2.647-0.796,4.67-2.388,6.071
			c-1.592,1.4-4.421,2.1-8.487,2.1h-11.335V282.2z M220.344,328.951c-1.841,1.592-5.006,2.388-9.494,2.388h-13.292V314.25h13.234
			c4.565,0,7.758,0.758,9.58,2.273c1.822,1.516,2.733,3.52,2.733,6.013C223.105,325.22,222.185,327.359,220.344,328.951z"/>
		<path style="fill:#FFFFFF;" d="M241.783,312.092c-2.858-3.548-7.317-6.051-13.378-7.509c3.99-1.381,7.02-3.26,9.091-5.639
			c3.107-3.568,4.661-7.845,4.661-12.831c0-5.946-2.177-10.932-6.53-14.96c-4.354-4.028-10.597-6.042-18.729-6.042H211.9v-14.167
			h-9.455v14.167h-11.733v-14.167h-9.455v14.167h-13.153h-7.397V282.2h7.397v50.174h-7.397v17.089h7.397h13.153v14.167h9.455
			v-14.167h11.733v14.167h9.455v-14.167h1.199c1.918,0,5.811-0.384,11.68-1.151c4.411-0.575,7.71-1.496,9.897-2.761
			c3.529-2.033,6.31-4.795,8.343-8.286c2.033-3.491,3.049-7.422,3.049-11.796C246.069,320.1,244.64,315.64,241.783,312.092z
			 M194.399,282.2h11.508c3.951,0,6.722,0.691,8.314,2.072c1.592,1.381,2.388,3.299,2.388,5.754c0,2.647-0.796,4.67-2.388,6.071
			c-1.592,1.4-4.421,2.1-8.487,2.1h-11.335V282.2z M217.185,328.951c-1.841,1.592-5.006,2.388-9.494,2.388h-13.292V314.25h13.234
			c4.565,0,7.758,0.758,9.58,2.273c1.822,1.516,2.733,3.52,2.733,6.013C219.947,325.22,219.026,327.359,217.185,328.951z"/>
	</g>
</g>
<g id="Character_1_">
	<g>
		<ellipse style="fill:#263238;" cx="308.072" cy="133.284" rx="9.787" ry="9.641"/>
		<path style="fill:#263238;" d="M316.754,141.38c0,2.967-2.442,5.372-5.454,5.372s-5.454-2.405-5.454-5.372
			s2.442-5.372,5.454-5.372S316.754,138.413,316.754,141.38z"/>
		<ellipse style="fill:#263238;" cx="321.533" cy="131.49" rx="9.787" ry="9.641"/>
		<polygon style="fill:#FF8B7B;" points="322.967,408.013 330.996,407.887 333.312,389.268 325.283,389.393 		"/>
		<polygon style="fill:#FF8B7B;" points="371.853,407.577 379.108,403.343 373.294,386.172 366.038,390.406 		"/>
		<path style="fill:#263238;" d="M379.892,402.768l-8.512,4.828c-0.285,0.162-0.42,0.5-0.324,0.814l2.141,6.988
			c0.222,0.725,1.074,1.047,1.726,0.662c2.712-1.6,4.619-2.894,8.069-4.851c2.122-1.204,8.647-4.613,11.577-6.275
			c2.866-1.626,1.67-4.777,0.321-4.359c-6.047,1.874-11.021,2.551-13.622,1.98C380.799,402.451,380.309,402.531,379.892,402.768z"/>
		<path style="fill:#263238;" d="M331.159,406.959l-8.765,0.137c-0.328,0.005-0.609,0.237-0.675,0.559l-1.474,7.159
			c-0.153,0.742,0.42,1.434,1.177,1.409c3.161-0.103,7.727-0.36,11.7-0.423c4.646-0.073,8.663,0.118,14.112,0.032
			c3.295-0.052,4.157-3.397,2.773-3.677c-6.3-1.275-11.429-1.342-16.907-4.602C332.507,407.199,331.852,406.948,331.159,406.959z"/>
		<path style="fill:#FF8B7B;" d="M343.397,163.851c1.127,2.346,2.329,4.89,3.568,7.303c1.239,2.438,2.487,4.872,3.786,7.26
			c2.597,4.763,5.337,9.456,8.381,13.618l0.569,0.784c0.093,0.129,0.084,0.133,0.078,0.155c-0.019,0.016-0.341-0.2-0.787-0.23
			c-0.445-0.046-0.761,0.102-0.722,0.135c0.028,0.029,0.28-0.052,0.589-0.247c0.637-0.39,1.461-1.143,2.259-1.987
			c0.803-0.858,1.598-1.839,2.366-2.874c1.564-2.062,3.032-4.336,4.466-6.655c1.446-2.303,2.829-4.746,4.162-7.093l5.616,2.188
			c-1.578,5.703-3.538,11.111-6.449,16.521c-0.748,1.344-1.561,2.687-2.519,4.034c-0.969,1.35-2.062,2.699-3.662,4.034
			c-0.811,0.661-1.767,1.333-3.054,1.879c-1.273,0.538-3.033,0.919-4.872,0.634c-1.836-0.283-3.451-1.181-4.527-2.096
			c-0.535-0.447-1.028-0.956-1.39-1.367l-0.749-0.872c-2.036-2.316-3.814-4.72-5.505-7.163c-1.714-2.431-3.249-4.929-4.753-7.442
			c-1.497-2.515-2.888-5.071-4.216-7.659c-1.313-2.62-2.584-5.15-3.768-7.952L343.397,163.851z"/>
		<g>
			<path style="fill:#407BFF;" d="M328.954,163.796c-2.164,7.363,13.072,27.435,13.072,27.435l15.362-9.885
				c0,0-4.515-10.242-10.645-18.051C340.448,155.277,331.329,155.716,328.954,163.796z"/>
		</g>
		<path style="opacity:0.2;" d="M338.318,172.44c3.16,1.35,7.81,8.96,10.23,14.6l-6.52,4.19c0,0-5.87-7.73-9.8-15.36
			C334.288,173.61,336.648,171.73,338.318,172.44z"/>
		<path style="fill:#FF8B7B;" d="M372.191,177.095l-1.973-9.052l9.137-0.07c0,0,2.44,6.798-2.468,9.974L372.191,177.095z"/>
		<polygon style="fill:#FF8B7B;" points="371.258,159.555 378.58,162.193 379.354,167.973 370.217,168.043 		"/>
		<polygon style="opacity:0.2;" points="333.309,389.273 332.117,398.87 324.085,398.996 325.277,389.399 		"/>
		<polygon style="opacity:0.2;" points="366.038,390.412 373.297,386.176 376.29,395.029 369.031,399.264 		"/>
		<g>
			<path style="fill:#407BFF;" d="M293.173,160.54c8.646,30.49,6.902,62.853,7.683,69.402c6.279-0.456,29.926-2.219,42.816-3.181
				c4.105-45.872-5.624-69.159-5.624-69.159s-2.753-0.535-6.497-0.919c-1.175-0.12-2.441-0.226-3.759-0.295
				c-0.729-0.044-1.468-0.067-2.219-0.082c-4.844-0.079-12.754,0.69-18.203,1.356c-1.141,0.142-2.303,0.313-3.426,0.497
				c-1.043,0.178-2.066,0.367-3.029,0.56C296.546,159.59,293.173,160.54,293.173,160.54z"/>
		</g>
		<polygon style="opacity:0.1;fill:#FFFFFF;" points="323.621,188.258 316.871,191.56 309.506,188.832 308.3,176.982 
			322.415,176.408 		"/>
		<path style="opacity:0.2;" d="M302.308,173.62c0.77,2.95-0.11,16.41-3.19,19.73c-0.42-4.31-0.98-8.81-1.72-13.41L302.308,173.62z"
			/>
		<path style="fill:#FF8B7B;" d="M307.651,137.032c1.584,5.771,3.528,16.415-0.278,20.627c3.418,2.927,7.851,6.273,14.823,5.999
			c6.972-0.273,5.401-4.965,3.377-7.353c-6.646-1.074-6.838-5.931-6.039-10.566L307.651,137.032z"/>
		<path style="fill:#FFFFFF;" d="M307.373,156.3c0,0,1.813,4.31,16.365,7.207c-2.41,1.772-3.513,6.104-3.513,6.104
			s-18.996-3.19-18.42-11.652C302.801,157.163,307.373,156.3,307.373,156.3z"/>
		<path style="fill:#FFFFFF;" d="M329.993,168.02c0,0-2.993-3.269-6.255-4.513c1.517-1.256,2.872-4.913,1.502-7.691
			c2.259-0.083,4.374,0.184,4.374,0.184S336.38,161.243,329.993,168.02z"/>
		<path style="opacity:0.4;fill:#263238;" d="M324.454,169.595c0.129,0.881,0.619,1.539,1.093,1.469
			c0.474-0.07,0.754-0.84,0.625-1.721c-0.129-0.881-0.619-1.539-1.093-1.469C324.605,167.944,324.325,168.714,324.454,169.595z"/>
		<path style="opacity:0.2;" d="M312.496,140.586l7.033,5.15c-0.193,1.097-0.324,2.205-0.321,3.272
			c-2.522-0.175-6.152-2.658-6.612-5.251C312.367,142.464,312.329,141.208,312.496,140.586z"/>
		<ellipse style="fill:#263238;" cx="315.764" cy="118.861" rx="11.139" ry="10.972"/>
		<path style="fill:#263238;" d="M326.157,120.271c-0.011,0-0.022-0.001-0.033-0.005c-0.066-0.019-0.105-0.087-0.087-0.154
			c0.776-2.791,0.403-5.722-1.051-8.253c-1.455-2.532-3.817-4.361-6.651-5.15c-0.066-0.019-0.105-0.087-0.087-0.154
			c0.018-0.066,0.089-0.106,0.153-0.087c2.898,0.807,5.314,2.677,6.802,5.266c1.488,2.59,1.869,5.589,1.074,8.445
			C326.263,120.235,326.212,120.271,326.157,120.271z"/>
		<ellipse style="fill:#263238;" cx="324.931" cy="123.802" rx="8.417" ry="8.291"/>
		<ellipse style="fill:#263238;" cx="305.616" cy="124.141" rx="9.787" ry="9.641"/>
		<path style="fill:#FF8B7B;" d="M306.299,128.271c1.077,7.893,1.306,12.568,5.614,16.339c6.48,5.674,15.997,1.314,17.3-6.742
			c1.173-7.251-0.785-18.941-8.782-21.519C312.552,113.811,305.222,120.378,306.299,128.271z"/>
		<path style="fill:#263238;" d="M301.818,124.338c0.819,11.102,25.34-4.424,20.123-10.345s-13.229-1.743-16.12,0.924
			C302.212,118.246,301.617,121.616,301.818,124.338z"/>
		<path style="fill:#263238;" d="M320.91,114.453c4.52-1.385,12.245,6.674,5.317,5.871
			C319.298,119.521,315.614,116.075,320.91,114.453z"/>
		<path style="fill:#FF8B7B;" d="M303.368,137.278c1.261,1.739,3.207,2.734,4.954,2.984c2.628,0.376,3.599-2.058,2.58-4.358
			c-0.917-2.071-3.389-4.762-5.888-4.083C302.552,132.49,301.927,135.29,303.368,137.278z"/>
		<path style="fill:#263238;" d="M335.102,396.969l-13.59,0.207c0,0,7.852-53.686,6.627-78.668
			c-0.373-7.6,0.845-18.229-1.163-29.621c-2.535-14.354-3.755-20.079-7.034-38.22c-2.338-12.935-4.416-21.81-4.416-21.81
			l28.146-2.092c0,0,9.192,64.701,8.919,89.198C352.31,341.433,335.102,396.969,335.102,396.969z"/>
		<path style="fill:#263238;" d="M305.14,125.423c4.544,1.306,6.62,12.274,1.252,7.821S299.817,123.893,305.14,125.423z"/>
		<path style="opacity:0.2;" d="M326.979,288.89c1.13,6.38,1.24,12.52,1.18,18.02c2.34,6.61,4.38,12.87,5.8,18.44
			c2.49,9.75,6.43,24.53,10.27,38.74c4.17-16.64,8.23-35.87,8.36-48.13L326.979,288.89z"/>
		<path style="fill:#263238;" d="M328.486,227.893c0,0,20.223,51.094,27.889,73.329c8.395,24.349,21.948,90.082,21.948,90.082
			l-12.788,7.253c0,0-19.925-54.189-28.176-77.907c-9.398-27.017-35.29-69.707-36.5-90.702
			C328.486,227.893,328.486,227.893,328.486,227.893z"/>
		<polygon style="fill:#407BFF;" points="380.011,390.713 364.953,399.254 362.401,394.755 379.067,384.915 		"/>
		<polygon style="fill:#407BFF;" points="336.813,397.259 320.619,397.513 320.537,392.28 338.635,391.721 		"/>
		<path style="fill:#263238;" d="M316.868,129.593c0.048,0.646,0.429,1.143,0.851,1.112c0.422-0.031,0.725-0.58,0.677-1.226
			c-0.048-0.646-0.429-1.144-0.851-1.112S316.82,128.947,316.868,129.593z"/>
		<path style="fill:#263238;" d="M325.789,129.05c0.048,0.646,0.429,1.144,0.851,1.112c0.422-0.031,0.725-0.58,0.677-1.226
			c-0.048-0.646-0.429-1.144-0.851-1.112C326.044,127.855,325.741,128.404,325.789,129.05z"/>
		<path style="fill:#FF5652;" d="M323.493,129.544c0,0,1.745,3.615,3.495,5.292c-1.063,1.151-3.041,0.808-3.041,0.808
			L323.493,129.544z"/>
		<path style="fill:#263238;" d="M321.354,137.574c-2.481-0.148-3.747-1.769-3.805-1.845c-0.064-0.083-0.048-0.202,0.036-0.266
			c0.083-0.064,0.203-0.048,0.266,0.035c0.015,0.019,1.493,1.9,4.319,1.689c0.105-0.007,0.196,0.071,0.204,0.176
			c0.008,0.105-0.071,0.196-0.175,0.204C321.903,137.589,321.621,137.59,321.354,137.574z"/>
		<path style="fill:#263238;" d="M315.514,127.403c-0.063-0.004-0.126-0.023-0.183-0.06c-0.176-0.114-0.227-0.349-0.113-0.526
			c1.141-1.767,2.896-1.794,2.971-1.795c0.21-0.001,0.381,0.169,0.382,0.379c0.001,0.209-0.168,0.38-0.377,0.382l0,0
			c-0.058,0.001-1.426,0.037-2.337,1.447C315.779,127.349,315.647,127.411,315.514,127.403z"/>
		<path style="fill:#263238;" d="M328.746,125.054c-0.123-0.007-0.24-0.074-0.306-0.189c-0.844-1.451-2.209-1.551-2.266-1.555
			c-0.209-0.013-0.369-0.192-0.357-0.401c0.012-0.209,0.189-0.369,0.398-0.358c0.076,0.006,1.826,0.114,2.883,1.932
			c0.105,0.182,0.044,0.414-0.138,0.52C328.893,125.042,328.819,125.058,328.746,125.054z"/>
		<g>
			<path style="fill:#407BFF;" d="M382.893,402.678c-0.646,0.366-1.418,0.627-1.97,0.785c-0.073,0.021-0.153-0.004-0.201-0.064
				c-0.048-0.06-0.055-0.142-0.019-0.21c0.164-0.303,1.632-2.964,2.629-3.005c0.155-0.006,0.375,0.042,0.549,0.307
				c0.233,0.357,0.285,0.716,0.154,1.068C383.869,402.004,383.424,402.376,382.893,402.678z M381.271,402.959
				c1.32-0.435,2.208-0.995,2.408-1.532c0.088-0.236,0.05-0.474-0.116-0.727c-0.081-0.124-0.157-0.137-0.215-0.135
				C382.83,400.586,381.886,401.91,381.271,402.959z"/>
			<path style="fill:#407BFF;" d="M380.965,403.446c-0.031,0.018-0.068,0.027-0.105,0.024c-0.07-0.004-0.131-0.046-0.161-0.109
				c-0.042-0.089-1.017-2.198-0.582-3.321c0.113-0.292,0.31-0.499,0.584-0.612c0,0,0,0,0,0c0.423-0.176,0.665,0.009,0.772,0.135
				c0.589,0.695,0.06,3.017-0.44,3.819C381.015,403.409,380.992,403.431,380.965,403.446z M380.769,399.816
				c-0.136,0.077-0.234,0.196-0.298,0.361c-0.279,0.72,0.164,2.021,0.416,2.655c0.409-0.953,0.643-2.613,0.295-3.023
				c-0.032-0.038-0.106-0.125-0.336-0.03l0,0C380.819,399.79,380.793,399.802,380.769,399.816z"/>
			<path style="fill:#407BFF;" d="M331.966,408.055c-0.067-0.022-0.117-0.08-0.128-0.151c-0.013-0.08,0.027-0.159,0.098-0.197
				c0.362-0.194,3.562-1.88,4.546-1.352c0.19,0.102,0.301,0.275,0.322,0.501v0c0.035,0.378-0.08,0.691-0.342,0.93
				c-0.868,0.793-3.173,0.513-4.47,0.276C331.983,408.06,331.974,408.058,331.966,408.055z M336.232,406.66
				c-0.608-0.2-2.347,0.494-3.611,1.121c1.777,0.267,3.096,0.169,3.583-0.276c0.171-0.156,0.243-0.358,0.22-0.615
				c-0.009-0.099-0.046-0.159-0.123-0.201C336.281,406.678,336.257,406.669,336.232,406.66z"/>
			<path style="fill:#407BFF;" d="M331.966,408.055c-0.017-0.006-0.034-0.014-0.049-0.024c-0.056-0.039-0.087-0.104-0.081-0.171
				c0.007-0.092,0.19-2.257,1.198-3.111c0.307-0.261,0.66-0.376,1.049-0.343l0,0c0.524,0.045,0.679,0.307,0.716,0.52
				c0.161,0.905-1.731,2.671-2.693,3.121C332.062,408.068,332.012,408.07,331.966,408.055z M334.245,404.821
				c-0.049-0.016-0.113-0.029-0.195-0.036c0,0,0,0,0,0c-0.288-0.025-0.54,0.058-0.771,0.254c-0.662,0.561-0.928,1.859-1.021,2.491
				c0.979-0.609,2.263-1.994,2.166-2.537C334.419,404.959,334.404,404.873,334.245,404.821z M334.067,404.595l0.004,0.001
				L334.067,404.595z"/>
		</g>
		<g>
			<path style="fill:#FF8B7B;" d="M302.009,170.951c-2.255,4.657-4.54,9.454-6.747,14.191c-1.107,2.374-2.208,4.749-3.252,7.133
				c-1.081,2.374-2.083,4.757-3.056,7.138c-0.464,1.183-0.971,2.375-1.393,3.553l-0.645,1.748c-0.086,0.169-0.143,0.313-0.181,0.479
				c-0.083,0.316-0.102,0.807,0.143,1.497c0.239,0.676,0.683,1.494,1.272,2.324c2.443,3.361,6.694,6.641,10.723,9.448l-2.418,5.52
				c-1.475-0.43-2.762-0.881-4.104-1.427c-1.326-0.538-2.634-1.139-3.923-1.82c-2.577-1.368-5.118-2.983-7.484-5.298
				c-1.182-1.16-2.33-2.514-3.27-4.235c-0.939-1.695-1.681-3.852-1.707-6.21c-0.015-1.168,0.141-2.354,0.441-3.461l0.59-2.059
				c0.383-1.366,0.826-2.669,1.244-4.004c1.782-5.242,3.78-10.316,5.933-15.304c2.177-4.991,4.452-9.845,6.988-14.724
				L302.009,170.951z"/>
			<g>
				<path style="fill:#407BFF;" d="M293.175,160.541c-7.324,2.294-14.525,27.125-14.525,27.125l16.945,7.417
					c0,0,5.481-12,8.633-21.404C307.661,163.435,302.047,157.763,293.175,160.541z"/>
			</g>
			<path style="fill:#FF8B7B;" d="M295.954,217.837l8.113,0.806l-3.302,9.034c0,0-7.291-1.618-7.203-5.598L295.954,217.837z"/>
			<polygon style="fill:#FF8B7B;" points="311.119,222.68 306.835,230.117 300.765,227.677 304.067,218.643 			"/>
		</g>
		<path style="fill:#FFFFFF;" d="M317.51,133.534c-3.051,0-5.533-2.482-5.533-5.534c0-3.051,2.482-5.533,5.533-5.533
			c3.052,0,5.534,2.482,5.534,5.533C323.044,131.051,320.561,133.534,317.51,133.534z M317.51,122.967
			c-2.775,0-5.033,2.258-5.033,5.033c0,2.776,2.258,5.034,5.033,5.034s5.034-2.258,5.034-5.034
			C322.544,125.225,320.285,122.967,317.51,122.967z"/>
		<path style="fill:#FFFFFF;" d="M329.525,133.534c-3.052,0-5.534-2.482-5.534-5.534c0-3.051,2.482-5.533,5.534-5.533
			c3.051,0,5.533,2.482,5.533,5.533C335.059,131.051,332.576,133.534,329.525,133.534z M329.525,122.967
			c-2.775,0-5.034,2.258-5.034,5.033c0,2.776,2.259,5.034,5.034,5.034c2.775,0,5.033-2.258,5.033-5.034
			C334.559,125.225,332.301,122.967,329.525,122.967z"/>
	</g>
</g>
</svg>
